<?xml version="1.0" encoding="utf-8"?>
<!-- Generator: Adobe Illustrator 26.0.1, SVG Export Plug-In . SVG Version: 6.00 Build 0)  -->
<svg version="1.1" id="Слой_1" xmlns="http://www.w3.org/2000/svg" xmlns:xlink="http://www.w3.org/1999/xlink" x="0px" y="0px"
	 viewBox="0 0 960 960" style="enable-background:new 0 0 960 960;" xml:space="preserve">
<style type="text/css">
	.st0{fill:#FFFFFF;}
</style>
<path class="st0" d="M200,760h57l391-391l-57-57L200,703V760z M120,840V670l528-527c8-7.3,16.8-13,26.5-17s19.8-6,30.5-6s21,2,31,6
	s18.7,10,26,18l55,56c8,7.3,13.8,16,17.5,26s5.5,20,5.5,30c0,10.7-1.8,20.8-5.5,30.5S825,305,817,313L290,840H120z M760,256l-56-56
	L760,256z M619,341l-28-29l57,57L619,341z"/>
</svg>
