<?xml version="1.0" encoding="utf-8"?>
<!-- Generator: Adobe Illustrator 26.0.1, SVG Export Plug-In . SVG Version: 6.00 Build 0)  -->
<svg version="1.1" id="Слой_1" xmlns="http://www.w3.org/2000/svg" xmlns:xlink="http://www.w3.org/1999/xlink" x="0px" y="0px"
	 viewBox="0 0 24 24" style="enable-background:new 0 0 24 24;" xml:space="preserve">
<style type="text/css">
	.st0{fill:#FFFFFF;}
</style>
<path class="st0" d="M12,22c-1.4,0-2.7-0.3-3.9-0.8S5.8,20,4.9,19.1s-1.6-2-2.1-3.2S2,13.4,2,12c0-1.4,0.3-2.7,0.8-3.9
	C3.3,6.9,4,5.8,4.9,4.9s2-1.6,3.2-2.1S10.6,2,12,2c0.3,0,0.5,0.1,0.7,0.3S13,2.7,13,3s-0.1,0.5-0.3,0.7C12.5,3.9,12.3,4,12,4
	C9.8,4,7.9,4.8,6.3,6.3S4,9.8,4,12s0.8,4.1,2.3,5.7C7.9,19.2,9.8,20,12,20s4.1-0.8,5.7-2.3c1.6-1.6,2.3-3.4,2.3-5.7
	c0-0.3,0.1-0.5,0.3-0.7S20.7,11,21,11s0.5,0.1,0.7,0.3c0.2,0.2,0.3,0.4,0.3,0.7c0,1.4-0.3,2.7-0.8,3.9c-0.5,1.2-1.2,2.3-2.1,3.2
	s-2,1.6-3.2,2.1S13.4,22,12,22z"/>
</svg>
